<?xml version="1.0" encoding="iso-8859-1"?>
<!-- Generator: Adobe Illustrator 21.0.2, SVG Export Plug-In . SVG Version: 6.00 Build 0)  -->
<svg version="1.1" id="Layer_1" xmlns="http://www.w3.org/2000/svg" xmlns:xlink="http://www.w3.org/1999/xlink" x="0px" y="0px"
	 viewBox="0 0 220 220" style="enable-background:new 0 0 220 220;" xml:space="preserve">
<g>
	<path style="fill:#FFFFFF;" d="M28.906,33.319l7.717,8.961l1.241-19.448c0.057-0.939,0.157-1.674,0.296-2.222
		c0.143-0.538,0.503-1.061,1.086-1.556c0.759-0.645,1.554-0.95,2.402-0.917c0.846,0.037,1.533,0.373,2.077,0.998
		c0.645,0.759,0.898,1.848,0.746,3.269l-1.294,11.44l16.352,4.087c1.138,0.277,2.071,0.572,2.797,0.892
		c0.726,0.316,1.306,0.732,1.747,1.243c0.49,0.571,0.692,1.259,0.597,2.069c-0.098,0.808-0.535,1.545-1.325,2.213
		c-0.729,0.626-1.458,0.983-2.194,1.066c-0.723,0.091-1.468,0.014-2.23-0.225c-0.755-0.237-1.442-0.46-2.054-0.669l-14.344-4.095
		l-0.826,7.751l4.549,5.285c0.917,1.071,1.35,2.076,1.303,3.017c-0.056,0.945-0.475,1.75-1.26,2.417
		c-0.45,0.385-0.988,0.64-1.596,0.759c-0.614,0.119-1.21,0.079-1.767-0.121c-0.454-0.187-0.879-0.482-1.281-0.877
		c-0.41-0.404-0.961-1.009-1.66-1.822L23.623,37.819c-0.899-1.048-1.342-2.03-1.327-2.954c0.024-0.926,0.431-1.725,1.241-2.418
		c0.799-0.678,1.657-0.962,2.602-0.868C27.074,31.678,27.999,32.256,28.906,33.319z"/>
	<path style="fill:#FFFFFF;" d="M79.479,1.578c3.466-0.783,6.604-0.771,9.417,0.043c2.801,0.819,5.138,2.352,6.999,4.608
		c1.863,2.253,3.187,5.1,3.978,8.531c0.58,2.539,0.748,4.928,0.53,7.159c-0.224,2.235-0.863,4.273-1.917,6.116
		c-1.052,1.836-2.509,3.394-4.362,4.664c-1.853,1.267-4.098,2.2-6.729,2.799c-2.618,0.595-5.058,0.71-7.32,0.353
		c-2.262-0.36-4.258-1.134-5.983-2.326c-1.732-1.197-3.194-2.77-4.391-4.728c-1.194-1.962-2.071-4.172-2.633-6.637
		c-0.581-2.523-0.741-4.919-0.48-7.196c0.246-2.266,0.91-4.303,1.977-6.097c1.06-1.799,2.509-3.315,4.333-4.557
		C74.732,3.067,76.926,2.161,79.479,1.578z M92.986,16.275c-0.554-2.403-1.425-4.396-2.618-5.979
		c-1.197-1.582-2.634-2.652-4.308-3.224c-1.68-0.571-3.463-0.643-5.371-0.211c-1.354,0.31-2.554,0.846-3.578,1.605
		c-1.04,0.763-1.858,1.713-2.475,2.856c-0.61,1.146-0.982,2.514-1.123,4.11c-0.138,1.593,0.008,3.314,0.424,5.168
		c0.427,1.865,1.061,3.497,1.884,4.895c0.823,1.398,1.785,2.499,2.891,3.292c1.1,0.791,2.269,1.305,3.526,1.546
		c1.243,0.23,2.543,0.195,3.901-0.113c1.734-0.393,3.231-1.182,4.492-2.36c1.257-1.184,2.109-2.757,2.57-4.732
		C93.646,21.159,93.573,18.873,92.986,16.275z"/>
	<path style="fill:#FFFFFF;" d="M136.871,3.335c3.408,1.007,6.136,2.545,8.185,4.627c2.036,2.078,3.313,4.554,3.831,7.429
		c0.505,2.873,0.265,5.999-0.732,9.374c-0.746,2.499-1.759,4.665-3.053,6.502c-1.3,1.837-2.86,3.303-4.685,4.399
		c-1.814,1.091-3.852,1.735-6.094,1.938c-2.243,0.2-4.657-0.08-7.242-0.841c-2.572-0.757-4.758-1.847-6.557-3.26
		c-1.799-1.413-3.156-3.062-4.071-4.946c-0.928-1.885-1.429-3.972-1.503-6.261c-0.08-2.288,0.25-4.646,0.967-7.069
		c0.734-2.485,1.773-4.651,3.115-6.509s2.922-3.31,4.729-4.356c1.806-1.049,3.815-1.667,6.021-1.857
		C131.988,2.315,134.345,2.591,136.871,3.335z M141.407,22.735c0.704-2.364,0.918-4.532,0.654-6.492
		c-0.264-1.963-0.985-3.601-2.163-4.917c-1.184-1.312-2.71-2.242-4.584-2.793c-1.335-0.393-2.638-0.512-3.914-0.35
		c-1.277,0.156-2.458,0.585-3.555,1.289c-1.092,0.694-2.096,1.706-2.994,3.028c-0.916,1.324-1.638,2.894-2.172,4.714
		c-0.551,1.834-0.809,3.568-0.776,5.189c0.033,1.62,0.335,3.048,0.9,4.278c0.571,1.229,1.339,2.251,2.318,3.062
		c0.973,0.818,2.123,1.416,3.452,1.807c1.71,0.504,3.398,0.55,5.082,0.134c1.677-0.418,3.196-1.377,4.561-2.874
		C139.587,27.312,140.649,25.285,141.407,22.735z"/>
	<path style="fill:#FFFFFF;" d="M177.352,30.123l-8.455,8.276l19.568-0.095c0.951-0.007,1.687,0.039,2.245,0.141
		c0.558,0.102,1.098,0.424,1.638,0.968c0.7,0.708,1.065,1.487,1.075,2.326c0.03,0.84-0.261,1.551-0.853,2.129
		c-0.711,0.7-1.79,1.022-3.219,0.965l-11.556-0.497l-2.979,16.514c-0.2,1.155-0.431,2.102-0.698,2.847
		c-0.268,0.739-0.64,1.349-1.124,1.819c-0.541,0.528-1.217,0.772-2.028,0.731c-0.817-0.04-1.587-0.427-2.315-1.16
		c-0.678-0.685-1.085-1.387-1.221-2.107c-0.135-0.714-0.109-1.46,0.079-2.231c0.182-0.77,0.36-1.464,0.528-2.084l3.112-14.532
		l-7.818-0.29l-4.984,4.882c-1.007,0.984-1.989,1.485-2.934,1.498c-0.951,0.01-1.781-0.347-2.509-1.08
		c-0.412-0.419-0.701-0.932-0.867-1.532c-0.161-0.607-0.16-1.195-0.006-1.766c0.162-0.458,0.421-0.899,0.801-1.333
		c0.368-0.429,0.946-1.021,1.708-1.771l17.934-17.554c0.984-0.966,1.94-1.47,2.861-1.518c0.928-0.043,1.763,0.308,2.519,1.06
		c0.729,0.742,1.076,1.583,1.041,2.523C178.863,28.192,178.348,29.147,177.352,30.123z"/>
	<path style="fill:#FFFFFF;" d="M195.619,103.53l-0.481-6.321l-9.545,0.724c-1.365,0.109-2.429-0.142-3.185-0.736
		c-0.75-0.595-1.168-1.396-1.248-2.388c-0.078-1.034,0.213-1.899,0.856-2.587c0.649-0.686,1.65-1.082,3.002-1.186l25.992-1.983
		c1.504-0.116,2.595,0.151,3.301,0.801c0.693,0.649,1.1,1.732,1.216,3.248l0.68,8.857c0.209,2.621,0.157,4.649-0.129,6.095
		c-0.276,1.42-0.814,2.674-1.625,3.758c-0.818,1.082-1.847,1.936-3.087,2.562c-1.259,0.625-2.688,1.001-4.292,1.123
		c-3.435,0.264-6.116-0.61-8.049-2.614C197.073,110.881,195.948,107.761,195.619,103.53z M210.95,100.676l-0.359-4.645l-10.3,0.785
		l0.353,4.648c0.129,1.628,0.403,2.974,0.821,4.04c0.425,1.069,1.039,1.86,1.843,2.375c0.822,0.51,1.838,0.726,3.084,0.628
		c1.491-0.115,2.666-0.645,3.543-1.604C210.85,105.836,211.189,103.764,210.95,100.676z"/>
	<path style="fill:#FFFFFF;" d="M184.071,127.941l25.601,7.376c1.334,0.381,2.242,0.976,2.725,1.779
		c0.483,0.809,0.594,1.694,0.309,2.663c-0.294,1.002-0.857,1.719-1.695,2.146c-0.838,0.433-1.927,0.454-3.274,0.068l-25.595-7.376
		c-1.347-0.386-2.256-0.987-2.746-1.795c-0.477-0.81-0.577-1.715-0.29-2.715c0.281-0.956,0.846-1.648,1.697-2.076
		S182.743,127.56,184.071,127.941z"/>
	<path style="fill:#FFFFFF;" d="M181.638,148.692l6.199,26.419l9.022-12.119c0.636-0.852,1.294-1.353,1.98-1.509
		c0.698-0.164,1.351-0.013,1.95,0.435c0.633,0.463,0.976,1.055,1.047,1.767c0.073,0.725-0.209,1.504-0.845,2.356l-11.629,15.629
		c-1.501,2.015-3.189,2.346-5.054,0.966c-0.884-0.655-1.473-1.344-1.757-2.076c-0.276-0.726-0.636-2.049-1.05-3.941l-5.729-24.648
		l-10.818,14.542c-0.641,0.859-1.298,1.372-1.965,1.532c-0.66,0.166-1.319,0.016-1.945-0.448c-0.654-0.48-1.016-1.075-1.087-1.781
		c-0.059-0.714,0.223-1.493,0.87-2.358l13.273-17.832c0.897-1.218,1.841-1.929,2.839-2.141c0.996-0.218,1.937,0.007,2.841,0.672
		c0.313,0.229,0.553,0.491,0.74,0.779c0.187,0.294,0.332,0.606,0.429,0.942c0.104,0.342,0.22,0.789,0.35,1.349
		C181.435,147.787,181.544,148.274,181.638,148.692z"/>
	<path style="fill:#FFFFFF;" d="M153.702,179.475l-6.952,26.236l13.669-6.495c0.961-0.46,1.777-0.594,2.466-0.409
		c0.681,0.179,1.196,0.612,1.517,1.288c0.344,0.706,0.361,1.386,0.091,2.056c-0.277,0.665-0.896,1.224-1.852,1.677l-17.622,8.387
		c-2.284,1.083-3.93,0.587-4.933-1.501c-0.473-0.994-0.661-1.882-0.561-2.652c0.079-0.78,0.392-2.106,0.914-3.975l6.541-24.45
		l-16.396,7.807c-0.971,0.461-1.791,0.608-2.456,0.44c-0.671-0.168-1.179-0.601-1.513-1.302c-0.354-0.736-0.395-1.433-0.117-2.085
		c0.271-0.658,0.897-1.218,1.867-1.685l20.112-9.558c1.364-0.653,2.548-0.842,3.526-0.572c0.972,0.272,1.708,0.912,2.189,1.924
		c0.167,0.341,0.266,0.689,0.287,1.034c0.022,0.345,0.005,0.688-0.056,1.03c-0.073,0.35-0.179,0.798-0.329,1.353
		C153.945,178.581,153.818,179.064,153.702,179.475z"/>
	<path style="fill:#FFFFFF;" d="M91.769,188.509l1.344,4.33l13.926,0.939l1.934-4.202c0.752-1.637,1.372-2.733,1.868-3.291
		c0.49-0.557,1.248-0.804,2.279-0.729c0.869,0.05,1.618,0.423,2.249,1.089c0.626,0.672,0.909,1.404,0.854,2.201
		c-0.031,0.459-0.132,0.926-0.322,1.409c-0.191,0.477-0.497,1.139-0.911,1.984l-10.256,21.226c-0.287,0.609-0.641,1.339-1.048,2.196
		c-0.41,0.851-0.838,1.558-1.27,2.115c-0.44,0.551-0.992,0.982-1.662,1.301c-0.671,0.313-1.484,0.44-2.435,0.374
		c-0.963-0.064-1.759-0.299-2.378-0.701c-0.625-0.401-1.119-0.899-1.471-1.49c-0.359-0.59-0.656-1.225-0.884-1.887
		c-0.228-0.668-0.512-1.564-0.859-2.674l-7.474-22.282c-0.585-1.695-0.86-2.92-0.809-3.672c0.054-0.777,0.43-1.466,1.139-2.074
		c0.703-0.601,1.531-0.875,2.462-0.813c0.544,0.037,1.004,0.167,1.382,0.388c0.375,0.215,0.687,0.495,0.931,0.839
		c0.245,0.351,0.494,0.871,0.744,1.569C91.365,187.355,91.585,187.974,91.769,188.509z M104.87,198.76l-10.236-0.689l4.224,14.212
		L104.87,198.76z"/>
	<polygon style="fill:#FFFFFF;" points="25.484,173.469 1.667,122.219 77.857,118.236 	"/>
</g>
</svg>
