<?xml version="1.0" encoding="iso-8859-1"?>
<!-- Generator: Adobe Illustrator 21.0.2, SVG Export Plug-In . SVG Version: 6.00 Build 0)  -->
<svg version="1.1" id="Layer_1" xmlns="http://www.w3.org/2000/svg" xmlns:xlink="http://www.w3.org/1999/xlink" x="0px" y="0px"
	 viewBox="0 0 100.333 100.5" style="enable-background:new 0 0 100.333 100.5;" xml:space="preserve">
<circle style="fill:none;stroke:#FF3000;stroke-width:3;stroke-miterlimit:10;" cx="48.675" cy="49.353" r="46.833"/>
<g>
	<g>
		<polyline style="fill:none;stroke:#FF3000;stroke-width:3;stroke-miterlimit:10;" points="31.107,34.764 36.966,31.148 
			41.826,39.022 35.963,42.643 		"/>
		<path style="fill:none;stroke:#FF3000;stroke-width:3;stroke-miterlimit:10;" d="M35.963,42.643L35.963,42.643
			c-2.222,1.369-2.912,4.286-1.541,6.508l7.679,12.442c1.371,2.224,4.574,2.897,6.795,1.529l0,0l5.648-3.487l4.86,7.874L53.8,70.968
			c-6.454,3.983-15.67-1.698-21.844-11.707c-6.174-10.008-7.305-20.512-0.849-24.498"/>
	</g>
	<path style="fill:none;stroke:#FF3000;stroke-width:3;stroke-miterlimit:10;" d="M48.394,39.181
		c3.036,0.178,5.946,1.742,7.727,4.487c1.718,2.636,2.011,5.777,1.093,8.537"/>
	<path style="fill:none;stroke:#FF3000;stroke-width:3;stroke-miterlimit:10;" d="M49.694,32.544
		c4.758,0.547,9.249,3.129,12.069,7.458c2.736,4.211,3.323,9.188,2.041,13.658"/>
	<path style="fill:none;stroke:#FF3000;stroke-width:3;stroke-miterlimit:10;" d="M50.939,26.695
		c6.255,0.871,12.104,4.344,15.818,10.054c3.647,5.604,4.488,12.22,2.878,18.2"/>
</g>
</svg>
