<?xml version="1.0" encoding="iso-8859-1"?>
<!-- Generator: Adobe Illustrator 21.0.2, SVG Export Plug-In . SVG Version: 6.00 Build 0)  -->
<svg version="1.1" id="Layer_1" xmlns="http://www.w3.org/2000/svg" xmlns:xlink="http://www.w3.org/1999/xlink" x="0px" y="0px"
	 viewBox="0 0 100.333 100.5" style="enable-background:new 0 0 100.333 100.5;" xml:space="preserve">
<circle style="fill:none;stroke:#FF3000;stroke-width:3;stroke-miterlimit:10;" cx="48.675" cy="48.353" r="46.833"/>
<g>
	<path style="fill:none;stroke:#FF3000;stroke-width:3;stroke-miterlimit:10;" d="M64.61,38.698c0-7.91-6.648-14.321-14.852-14.321
		c-8.198,0-14.844,6.411-14.844,14.321c0,2.795,0.844,5.393,2.279,7.598h-0.016l12.331,19.909L62.35,46.296h-0.022
		C63.764,44.092,64.61,41.494,64.61,38.698z"/>
	<path style="fill:none;stroke:#FF3000;stroke-width:3;stroke-miterlimit:10;" d="M54.175,58.96
		c7.764,0.85,13.485,3.773,13.485,7.246c0,4.135-8.125,7.49-18.152,7.49c-10.023,0-18.154-3.355-18.154-7.49
		c0-3.499,5.807-6.437,13.659-7.263"/>
	<circle style="fill:none;stroke:#FF3000;stroke-width:3;stroke-miterlimit:10;" cx="49.508" cy="38.333" r="5.5"/>
</g>
</svg>
